<svg width="54" height="54" viewBox="0 0 54 54" fill="none" xmlns="http://www.w3.org/2000/svg">
<g clip-path="url(#clip0)">
<path d="M53.3902 49.137C44.345 42.09 33.7094 46.218 23.2262 48.9514L18.5025 31.3213C19.4273 31.3316 20.3629 31.5623 21.2326 32.0344C21.9904 32.4733 22.9434 32.2071 23.3809 31.4836C24.8662 29.0276 28.0571 27.7726 31.241 29.4011C32.4588 30.024 33.8375 28.9065 33.4897 27.5898C31.2004 18.9218 22.6943 13.6862 14.1707 15.1534L13.4202 12.352C13.1942 11.5082 12.3269 11.007 11.4827 11.2333C10.6388 11.4594 10.138 12.3269 10.3641 13.171L11.1146 15.9721C2.96286 18.9768 -1.74737 27.7937 0.60595 36.4193C0.969712 37.7521 2.76637 38.0147 3.48672 36.82C5.03754 34.2486 8.35674 33.1347 11.3375 34.725C12.0865 35.1225 13.0051 34.8603 13.4356 34.1487C13.9513 33.2958 14.6485 32.6212 15.4475 32.1446L20.1521 49.7033C14.1038 51.0631 8.02599 51.5978 2.24325 48.9469C1.44917 48.5828 0.510079 48.9316 0.146001 49.7258C-0.218077 50.5201 0.130602 51.4592 0.924887 51.8233C19.0536 60.1334 38.0862 41.2243 51.4457 51.6331C52.1348 52.1699 53.1289 52.0466 53.6659 51.3574C54.2029 50.6681 54.0794 49.6739 53.3902 49.137ZM29.3306 25.5399C27.0609 25.2982 24.7746 25.9326 22.952 27.3129C21.9114 23.7774 19.9583 20.5744 17.1725 18.0713C22.2036 18.1161 26.9605 20.9618 29.3306 25.5399ZM3.17854 32.5537C2.94525 27.5163 5.54157 22.6049 9.98771 19.992C8.83694 23.5176 8.72536 27.2666 9.60064 30.8876C7.32631 30.6031 5.02488 31.2013 3.17854 32.5537ZM12.6958 30.2243C11.7953 26.5779 12.0529 22.7816 13.6456 19.2896C16.7695 21.5158 18.8929 24.6664 19.9385 28.2816C17.3595 27.8425 14.7092 28.5533 12.6958 30.2243Z" fill="black"/>
<path d="M30.0897 14.3389H31.772C32.6457 14.3389 33.3539 13.6305 33.3539 12.7568C33.3539 11.8831 32.6456 11.1748 31.772 11.1748H30.0897C29.216 11.1748 28.5078 11.8831 28.5078 12.7568C28.5078 13.6305 29.216 14.3389 30.0897 14.3389Z" fill="black"/>
<path d="M41.2454 18.0729C44.1765 18.0729 46.5611 15.688 46.5611 12.7568C46.5611 9.82553 44.1765 7.44067 41.2454 7.44067C38.3143 7.44067 35.9297 9.82553 35.9297 12.7568C35.9297 15.688 38.3143 18.0729 41.2454 18.0729ZM41.2454 10.6047C42.4319 10.6047 43.3972 11.5701 43.3972 12.7567C43.3972 13.9432 42.4319 14.9087 41.2454 14.9087C40.0589 14.9087 39.0936 13.9433 39.0936 12.7567C39.0936 11.5701 40.0589 10.6047 41.2454 10.6047Z" fill="black"/>
<path d="M41.244 4.8465C42.1177 4.8465 42.826 4.13817 42.826 3.26447V1.58203C42.826 0.708328 42.1176 0 41.244 0C40.3704 0 39.6621 0.708328 39.6621 1.58203V3.26436C39.6621 4.13817 40.3703 4.8465 41.244 4.8465Z" fill="black"/>
<path d="M33.4126 7.1634C34.0303 7.78123 35.0321 7.78134 35.6498 7.1634C36.2677 6.54556 36.2677 5.54393 35.6498 4.92599L34.4604 3.7364C33.8426 3.11846 32.8409 3.11846 32.2231 3.7364C31.6053 4.35424 31.6053 5.35588 32.2231 5.97382L33.4126 7.1634Z" fill="black"/>
<path d="M33.4126 18.3504L32.2231 19.54C31.6053 20.1578 31.6053 21.1595 32.2231 21.7774C32.8408 22.3952 33.8426 22.3953 34.4604 21.7774L35.6498 20.5878C36.2677 19.97 36.2677 18.9684 35.6498 18.3504C35.0321 17.7325 34.0304 17.7325 33.4126 18.3504Z" fill="black"/>
<path d="M39.6621 22.2493V23.9315C39.6621 24.8052 40.3704 25.5135 41.244 25.5135C42.1176 25.5135 42.826 24.8052 42.826 23.9315V22.2493C42.826 21.3756 42.1176 20.6672 41.244 20.6672C40.3704 20.6672 39.6621 21.3756 39.6621 22.2493Z" fill="black"/>
<path d="M46.8384 18.3504C46.2205 18.9683 46.2205 19.9699 46.8384 20.5878L48.0279 21.7774C48.6455 22.3952 49.6473 22.3953 50.2651 21.7774C50.8829 21.1596 50.8829 20.1579 50.2651 19.54L49.0756 18.3504C48.4579 17.7325 47.4561 17.7325 46.8384 18.3504Z" fill="black"/>
<path d="M49.1543 12.7568C49.1543 13.6305 49.8626 14.3389 50.7362 14.3389H52.4184C53.2922 14.3389 54.0004 13.6305 54.0004 12.7568C54.0004 11.8831 53.292 11.1748 52.4184 11.1748H50.7362C49.8625 11.1748 49.1543 11.8831 49.1543 12.7568Z" fill="black"/>
<path d="M49.0756 7.1634L50.2651 5.97382C50.8829 5.35598 50.8829 4.35435 50.2651 3.7364C49.6473 3.11846 48.6456 3.11846 48.0279 3.7364L46.8384 4.92599C46.2205 5.54382 46.2205 6.54546 46.8384 7.1634C47.456 7.78123 48.4579 7.78134 49.0756 7.1634Z" fill="black"/>
</g>
<defs>
<clipPath id="clip0">
<rect width="54" height="54" fill="white"/>
</clipPath>
</defs>
</svg>
