<svg width="1160" height="320" viewBox="0 0 1160 320" fill="none" xmlns="http://www.w3.org/2000/svg">
<rect width="1160" height="320" fill="url(#paint0_linear)"/>
<path d="M-42.9659 6.57227L0.393692 31.3492V80.903L-42.9659 105.68L-86.3255 80.903V31.3492L-42.9659 6.57227Z" fill="#30AD8E"/>
<path d="M-42.9659 165.145L0.393692 189.921V239.475L-42.9659 264.252L-86.3255 239.475V189.921L-42.9659 165.145Z" fill="#30AD8E"/>
<path d="M2.87142 -72.7139L46.231 -47.937V1.61684L2.87142 26.3937L-40.4882 1.61684V-47.937L2.87142 -72.7139Z" fill="#30AD8E"/>
<path d="M2.87142 85.8583L46.231 110.635V160.189L2.87142 184.966L-40.4882 160.189V110.635L2.87142 85.8583Z" fill="#30AD8E"/>
<path d="M2.87142 244.43L46.231 269.207V318.761L2.87142 343.538L-40.4882 318.761V269.207L2.87142 244.43Z" fill="#30AD8E"/>
<path d="M48.7086 6.57227L92.0682 31.3492V80.903L48.7086 105.68L5.34906 80.903V31.3492L48.7086 6.57227Z" fill="#30AD8E"/>
<path d="M48.7086 165.145L92.0682 189.921V239.475L48.7086 264.252L5.34906 239.475V189.921L48.7086 165.145Z" fill="#30AD8E"/>
<path d="M94.5459 -72.7139L137.906 -47.937V1.61684L94.5459 26.3937L51.1863 1.61684V-47.937L94.5459 -72.7139Z" fill="#30AD8E"/>
<path d="M94.5459 85.8583L137.906 110.635V160.189L94.5459 184.966L51.1863 160.189V110.635L94.5459 85.8583Z" fill="#30AD8E"/>
<path d="M94.5459 244.43L137.906 269.207V318.761L94.5459 343.538L51.1863 318.761V269.207L94.5459 244.43Z" fill="#30AD8E"/>
<path d="M140.383 6.57227L183.743 31.3492V80.903L140.383 105.68L97.0236 80.903V31.3492L140.383 6.57227Z" fill="#30AD8E"/>
<path d="M140.383 165.145L183.743 189.921V239.475L140.383 264.252L97.0236 239.475V189.921L140.383 165.145Z" fill="#30AD8E"/>
<path d="M186.22 -72.7139L229.58 -47.937V1.61684L186.22 26.3937L142.861 1.61684V-47.937L186.22 -72.7139Z" fill="#30AD8E"/>
<path d="M186.22 85.8583L229.58 110.635V160.189L186.22 184.966L142.861 160.189V110.635L186.22 85.8583Z" fill="#30AD8E"/>
<path d="M186.22 244.43L229.58 269.207V318.761L186.22 343.538L142.861 318.761V269.207L186.22 244.43Z" fill="#30AD8E"/>
<path d="M232.058 6.57227L275.417 31.3492V80.903L232.058 105.68L188.698 80.903V31.3492L232.058 6.57227Z" fill="#30AD8E"/>
<path d="M232.058 165.145L275.417 189.921V239.475L232.058 264.252L188.698 239.475V189.921L232.058 165.145Z" fill="#30AD8E"/>
<path d="M277.895 -72.7139L321.255 -47.937V1.61684L277.895 26.3937L234.535 1.61684V-47.937L277.895 -72.7139Z" fill="#30AD8E"/>
<path d="M277.895 85.8583L321.255 110.635V160.189L277.895 184.966L234.535 160.189V110.635L277.895 85.8583Z" fill="#30AD8E"/>
<path d="M277.895 244.43L321.255 269.207V318.761L277.895 343.538L234.535 318.761V269.207L277.895 244.43Z" fill="#30AD8E"/>
<path d="M323.732 6.57227L367.092 31.3492V80.903L323.732 105.68L280.373 80.903V31.3492L323.732 6.57227Z" fill="#30AD8E"/>
<path d="M323.732 165.145L367.092 189.921V239.475L323.732 264.252L280.373 239.475V189.921L323.732 165.145Z" fill="#30AD8E"/>
<path d="M369.57 -72.7139L412.929 -47.937V1.61684L369.57 26.3937L326.21 1.61684V-47.937L369.57 -72.7139Z" fill="#30AD8E"/>
<path d="M369.57 85.8583L412.929 110.635V160.189L369.57 184.966L326.21 160.189V110.635L369.57 85.8583Z" fill="#30AD8E"/>
<path d="M369.57 244.43L412.929 269.207V318.761L369.57 343.538L326.21 318.761V269.207L369.57 244.43Z" fill="#30AD8E"/>
<path d="M415.407 6.57227L458.766 31.3492V80.903L415.407 105.68L372.047 80.903V31.3492L415.407 6.57227Z" fill="#30AD8E"/>
<path d="M415.407 165.145L458.766 189.921V239.475L415.407 264.252L372.047 239.475V189.921L415.407 165.145Z" fill="#30AD8E"/>
<path d="M461.244 -72.7139L504.604 -47.937V1.61684L461.244 26.3937L417.885 1.61684V-47.937L461.244 -72.7139Z" fill="#30AD8E"/>
<path d="M461.244 85.8583L504.604 110.635V160.189L461.244 184.966L417.885 160.189V110.635L461.244 85.8583Z" fill="#30AD8E"/>
<path d="M461.244 244.43L504.604 269.207V318.761L461.244 343.538L417.885 318.761V269.207L461.244 244.43Z" fill="#30AD8E"/>
<path d="M507.081 6.57227L550.441 31.3492V80.903L507.081 105.68L463.722 80.903V31.3492L507.081 6.57227Z" fill="#30AD8E"/>
<path d="M507.081 165.145L550.441 189.921V239.475L507.081 264.252L463.722 239.475V189.921L507.081 165.145Z" fill="#30AD8E"/>
<path d="M552.919 -72.7139L596.278 -47.937V1.61684L552.919 26.3937L509.559 1.61684V-47.937L552.919 -72.7139Z" fill="#30AD8E"/>
<path d="M552.919 85.8583L596.278 110.635V160.189L552.919 184.966L509.559 160.189V110.635L552.919 85.8583Z" fill="#30AD8E"/>
<path d="M552.919 244.43L596.278 269.207V318.761L552.919 343.538L509.559 318.761V269.207L552.919 244.43Z" fill="#30AD8E"/>
<path d="M598.756 6.57227L642.115 31.3492V80.903L598.756 105.68L555.396 80.903V31.3492L598.756 6.57227Z" fill="#30AD8E"/>
<path d="M598.756 165.145L642.115 189.921V239.475L598.756 264.252L555.396 239.475V189.921L598.756 165.145Z" fill="#30AD8E"/>
<path d="M644.593 -72.7139L687.953 -47.937V1.61684L644.593 26.3937L601.234 1.61684V-47.937L644.593 -72.7139Z" fill="#30AD8E"/>
<path d="M644.593 85.8583L687.953 110.635V160.189L644.593 184.966L601.234 160.189V110.635L644.593 85.8583Z" fill="#30AD8E"/>
<path d="M644.593 244.43L687.953 269.207V318.761L644.593 343.538L601.234 318.761V269.207L644.593 244.43Z" fill="#30AD8E"/>
<path d="M690.43 6.57227L733.79 31.3492V80.903L690.43 105.68L647.071 80.903V31.3492L690.43 6.57227Z" fill="#30AD8E"/>
<path d="M690.43 165.145L733.79 189.921V239.475L690.43 264.252L647.071 239.475V189.921L690.43 165.145Z" fill="#30AD8E"/>
<path d="M736.268 -72.7139L779.627 -47.937V1.61684L736.268 26.3937L692.908 1.61684V-47.937L736.268 -72.7139Z" fill="#30AD8E"/>
<path d="M736.268 85.8583L779.627 110.635V160.189L736.268 184.966L692.908 160.189V110.635L736.268 85.8583Z" fill="#30AD8E"/>
<path d="M736.268 244.43L779.627 269.207V318.761L736.268 343.538L692.908 318.761V269.207L736.268 244.43Z" fill="#30AD8E"/>
<path d="M782.105 6.57227L825.465 31.3492V80.903L782.105 105.68L738.745 80.903V31.3492L782.105 6.57227Z" fill="#30AD8E"/>
<path d="M782.105 165.145L825.465 189.921V239.475L782.105 264.252L738.745 239.475V189.921L782.105 165.145Z" fill="#30AD8E"/>
<path d="M827.942 -72.7139L871.302 -47.937V1.61684L827.942 26.3937L784.583 1.61684V-47.937L827.942 -72.7139Z" fill="#30AD8E"/>
<path d="M827.942 85.8583L871.302 110.635V160.189L827.942 184.966L784.583 160.189V110.635L827.942 85.8583Z" fill="#30AD8E"/>
<path d="M827.942 244.43L871.302 269.207V318.761L827.942 343.538L784.583 318.761V269.207L827.942 244.43Z" fill="#30AD8E"/>
<path d="M873.779 6.57227L917.139 31.3492V80.903L873.779 105.68L830.42 80.903V31.3492L873.779 6.57227Z" fill="#30AD8E"/>
<path d="M873.779 165.145L917.139 189.921V239.475L873.779 264.252L830.42 239.475V189.921L873.779 165.145Z" fill="#30AD8E"/>
<path d="M919.617 -72.7139L962.976 -47.937V1.61684L919.617 26.3937L876.257 1.61684V-47.937L919.617 -72.7139Z" fill="#30AD8E"/>
<path d="M919.617 85.8583L962.976 110.635V160.189L919.617 184.966L876.257 160.189V110.635L919.617 85.8583Z" fill="#30AD8E"/>
<path d="M919.617 244.43L962.976 269.207V318.761L919.617 343.538L876.257 318.761V269.207L919.617 244.43Z" fill="#30AD8E"/>
<path d="M965.454 6.57227L1008.81 31.3492V80.903L965.454 105.68L922.094 80.903V31.3492L965.454 6.57227Z" fill="#30AD8E"/>
<path d="M965.454 165.145L1008.81 189.921V239.475L965.454 264.252L922.094 239.475V189.921L965.454 165.145Z" fill="#30AD8E"/>
<path d="M1011.29 -72.7139L1054.65 -47.937V1.61684L1011.29 26.3937L967.932 1.61684V-47.937L1011.29 -72.7139Z" fill="#30AD8E"/>
<path d="M1011.29 85.8583L1054.65 110.635V160.189L1011.29 184.966L967.932 160.189V110.635L1011.29 85.8583Z" fill="#30AD8E"/>
<path d="M1011.29 244.43L1054.65 269.207V318.761L1011.29 343.538L967.932 318.761V269.207L1011.29 244.43Z" fill="#30AD8E"/>
<path d="M1057.13 6.57227L1100.49 31.3492V80.903L1057.13 105.68L1013.77 80.903V31.3492L1057.13 6.57227Z" fill="#30AD8E"/>
<path d="M1057.13 165.145L1100.49 189.921V239.475L1057.13 264.252L1013.77 239.475V189.921L1057.13 165.145Z" fill="#30AD8E"/>
<path d="M1102.97 -72.7139L1146.33 -47.937V1.61684L1102.97 26.3937L1059.61 1.61684V-47.937L1102.97 -72.7139Z" fill="#30AD8E"/>
<path d="M1102.97 85.8583L1146.33 110.635V160.189L1102.97 184.966L1059.61 160.189V110.635L1102.97 85.8583Z" fill="#30AD8E"/>
<path d="M1102.97 244.43L1146.33 269.207V318.761L1102.97 343.538L1059.61 318.761V269.207L1102.97 244.43Z" fill="#30AD8E"/>
<path d="M1148.8 6.57227L1192.16 31.3492V80.903L1148.8 105.68L1105.44 80.903V31.3492L1148.8 6.57227Z" fill="#30AD8E"/>
<path d="M1148.8 165.145L1192.16 189.921V239.475L1148.8 264.252L1105.44 239.475V189.921L1148.8 165.145Z" fill="#30AD8E"/>
<path d="M1194.64 -72.7139L1238 -47.937V1.61684L1194.64 26.3937L1151.28 1.61684V-47.937L1194.64 -72.7139Z" fill="#30AD8E"/>
<path d="M1194.64 85.8583L1238 110.635V160.189L1194.64 184.966L1151.28 160.189V110.635L1194.64 85.8583Z" fill="#30AD8E"/>
<path d="M1194.64 244.43L1238 269.207V318.761L1194.64 343.538L1151.28 318.761V269.207L1194.64 244.43Z" fill="#30AD8E"/>
<defs>
<linearGradient id="paint0_linear" x1="0" y1="160" x2="1212.73" y2="160" gradientUnits="userSpaceOnUse">
<stop stop-color="#30AD8E"/>
<stop offset="1" stop-color="#3BBE9E"/>
</linearGradient>
</defs>
</svg>
