<svg width="572" height="320" viewBox="0 0 572 320" fill="none" xmlns="http://www.w3.org/2000/svg">
<rect width="1160" height="320" fill="black" fill-opacity="0.87"/>
<path d="M-42.9659 6.57227L0.393723 31.3492V80.903L-42.9659 105.68L-86.3254 80.903V31.3492L-42.9659 6.57227Z" fill="black" fill-opacity="0.87"/>
<path d="M-42.9659 165.145L0.393723 189.921V239.475L-42.9659 264.252L-86.3254 239.475V189.921L-42.9659 165.145Z" fill="black" fill-opacity="0.87"/>
<path d="M2.87142 -72.7139L46.231 -47.937V1.61684L2.87142 26.3937L-40.4882 1.61684V-47.937L2.87142 -72.7139Z" fill="black" fill-opacity="0.87"/>
<path d="M2.87142 85.8582L46.231 110.635V160.189L2.87142 184.966L-40.4882 160.189V110.635L2.87142 85.8582Z" fill="black" fill-opacity="0.87"/>
<path d="M2.87142 244.43L46.231 269.207V318.761L2.87142 343.538L-40.4882 318.761V269.207L2.87142 244.43Z" fill="black" fill-opacity="0.87"/>
<path d="M48.7086 6.57227L92.0682 31.3492V80.903L48.7086 105.68L5.34906 80.903V31.3492L48.7086 6.57227Z" fill="black" fill-opacity="0.87"/>
<path d="M48.7086 165.145L92.0682 189.921V239.475L48.7086 264.252L5.34906 239.475V189.921L48.7086 165.145Z" fill="black" fill-opacity="0.87"/>
<path d="M94.5459 -72.7139L137.906 -47.937V1.61684L94.5459 26.3937L51.1863 1.61684V-47.937L94.5459 -72.7139Z" fill="black" fill-opacity="0.87"/>
<path d="M94.5459 85.8582L137.906 110.635V160.189L94.5459 184.966L51.1863 160.189V110.635L94.5459 85.8582Z" fill="black" fill-opacity="0.87"/>
<path d="M94.5459 244.43L137.906 269.207V318.761L94.5459 343.538L51.1863 318.761V269.207L94.5459 244.43Z" fill="black" fill-opacity="0.87"/>
<path d="M140.383 6.57227L183.743 31.3492V80.903L140.383 105.68L97.0237 80.903V31.3492L140.383 6.57227Z" fill="black" fill-opacity="0.87"/>
<path d="M140.383 165.145L183.743 189.921V239.475L140.383 264.252L97.0237 239.475V189.921L140.383 165.145Z" fill="black" fill-opacity="0.87"/>
<path d="M186.22 -72.7139L229.58 -47.937V1.61684L186.22 26.3937L142.861 1.61684V-47.937L186.22 -72.7139Z" fill="black" fill-opacity="0.87"/>
<path d="M186.22 85.8582L229.58 110.635V160.189L186.22 184.966L142.861 160.189V110.635L186.22 85.8582Z" fill="black" fill-opacity="0.87"/>
<path d="M186.22 244.43L229.58 269.207V318.761L186.22 343.538L142.861 318.761V269.207L186.22 244.43Z" fill="black" fill-opacity="0.87"/>
<path d="M232.058 6.57227L275.417 31.3492V80.903L232.058 105.68L188.698 80.903V31.3492L232.058 6.57227Z" fill="black" fill-opacity="0.87"/>
<path d="M232.058 165.145L275.417 189.921V239.475L232.058 264.252L188.698 239.475V189.921L232.058 165.145Z" fill="black" fill-opacity="0.87"/>
<path d="M277.895 -72.7139L321.255 -47.937V1.61684L277.895 26.3937L234.535 1.61684V-47.937L277.895 -72.7139Z" fill="black" fill-opacity="0.87"/>
<path d="M277.895 85.8582L321.255 110.635V160.189L277.895 184.966L234.535 160.189V110.635L277.895 85.8582Z" fill="black" fill-opacity="0.87"/>
<path d="M277.895 244.43L321.255 269.207V318.761L277.895 343.538L234.535 318.761V269.207L277.895 244.43Z" fill="black" fill-opacity="0.87"/>
<path d="M323.732 6.57227L367.092 31.3492V80.903L323.732 105.68L280.373 80.903V31.3492L323.732 6.57227Z" fill="black" fill-opacity="0.87"/>
<path d="M323.732 165.145L367.092 189.921V239.475L323.732 264.252L280.373 239.475V189.921L323.732 165.145Z" fill="black" fill-opacity="0.87"/>
<path d="M369.57 -72.7139L412.929 -47.937V1.61684L369.57 26.3937L326.21 1.61684V-47.937L369.57 -72.7139Z" fill="black" fill-opacity="0.87"/>
<path d="M369.57 85.8582L412.929 110.635V160.189L369.57 184.966L326.21 160.189V110.635L369.57 85.8582Z" fill="black" fill-opacity="0.87"/>
<path d="M369.57 244.43L412.929 269.207V318.761L369.57 343.538L326.21 318.761V269.207L369.57 244.43Z" fill="black" fill-opacity="0.87"/>
<path d="M415.407 6.57227L458.766 31.3492V80.903L415.407 105.68L372.047 80.903V31.3492L415.407 6.57227Z" fill="black" fill-opacity="0.87"/>
<path d="M415.407 165.145L458.766 189.921V239.475L415.407 264.252L372.047 239.475V189.921L415.407 165.145Z" fill="black" fill-opacity="0.87"/>
<path d="M461.244 -72.7139L504.604 -47.937V1.61684L461.244 26.3937L417.885 1.61684V-47.937L461.244 -72.7139Z" fill="black" fill-opacity="0.87"/>
<path d="M461.244 85.8582L504.604 110.635V160.189L461.244 184.966L417.885 160.189V110.635L461.244 85.8582Z" fill="black" fill-opacity="0.87"/>
<path d="M461.244 244.43L504.604 269.207V318.761L461.244 343.538L417.885 318.761V269.207L461.244 244.43Z" fill="black" fill-opacity="0.87"/>
<path d="M507.081 6.57227L550.441 31.3492V80.903L507.081 105.68L463.722 80.903V31.3492L507.081 6.57227Z" fill="black" fill-opacity="0.87"/>
<path d="M507.081 165.145L550.441 189.921V239.475L507.081 264.252L463.722 239.475V189.921L507.081 165.145Z" fill="black" fill-opacity="0.87"/>
<path d="M552.919 -72.7139L596.278 -47.937V1.61684L552.919 26.3937L509.559 1.61684V-47.937L552.919 -72.7139Z" fill="black" fill-opacity="0.87"/>
<path d="M552.919 85.8582L596.278 110.635V160.189L552.919 184.966L509.559 160.189V110.635L552.919 85.8582Z" fill="black" fill-opacity="0.87"/>
<path d="M552.919 244.43L596.278 269.207V318.761L552.919 343.538L509.559 318.761V269.207L552.919 244.43Z" fill="black" fill-opacity="0.87"/>
<path d="M598.756 6.57227L642.115 31.3492V80.903L598.756 105.68L555.396 80.903V31.3492L598.756 6.57227Z" fill="black" fill-opacity="0.87"/>
<path d="M598.756 165.145L642.115 189.921V239.475L598.756 264.252L555.396 239.475V189.921L598.756 165.145Z" fill="black" fill-opacity="0.87"/>
</svg>
