<svg width="54" height="54" viewBox="0 0 54 54" fill="none" xmlns="http://www.w3.org/2000/svg">
<g clip-path="url(#clip0)">
<path d="M48.5513 35.9311L52.2456 32.2364C54.5844 29.898 54.5848 26.0924 52.246 23.7528C51.5283 23.0355 50.6664 22.5316 49.7456 22.2523C50.4987 21.2294 50.9062 19.9979 50.9062 18.7039C50.9062 17.1017 50.282 15.595 49.1487 14.4621C48.0161 13.3291 46.5095 12.705 44.9069 12.705C44.8397 12.705 44.7726 12.7062 44.7054 12.7082C44.7577 11.1069 44.1743 9.48775 42.9545 8.26745C41.7346 7.04797 40.1134 6.46377 38.5145 6.51692C38.5165 6.45018 38.5178 6.38261 38.5178 6.31546C38.5178 4.71283 37.8936 3.20661 36.7607 2.07365C34.4222 -0.264784 30.6167 -0.265196 28.277 2.07365L26.9999 3.35081L25.7231 2.07406C24.5902 0.940687 23.0835 0.316528 21.4809 0.316528C19.8787 0.316528 18.3725 0.940687 17.2395 2.07324C16.0192 3.29354 15.4371 4.91306 15.4902 6.51568C15.4227 6.51321 15.3551 6.51074 15.2875 6.51074C13.6853 6.51074 12.1787 7.13449 11.0449 8.26745C9.825 9.48816 9.24287 11.1077 9.29601 12.7099C9.22803 12.7074 9.16047 12.705 9.09249 12.705C7.49028 12.705 5.98364 13.3291 4.85151 14.4617C3.71813 15.5946 3.09397 17.1013 3.09397 18.7039C3.09397 19.9975 3.50102 21.2289 4.25454 22.2515C3.32015 22.5333 2.46363 23.0433 1.75378 23.7528C-0.579295 26.0867 -0.584651 29.8802 1.73813 32.2199C1.74389 32.2261 1.74966 32.2319 1.75543 32.238L5.45507 35.9369C5.46001 35.9422 5.46537 35.9476 5.47072 35.9529C5.69278 36.1754 5.93009 36.3769 6.17893 36.5594L5.08469 37.6536C4.02053 38.7178 3.47836 40.1675 3.55869 41.736C3.63532 43.2418 4.28338 44.6763 5.38256 45.7755L11.6402 52.0336C12.8012 53.1941 14.3255 53.7746 15.8503 53.7746C17.3751 53.7746 18.8998 53.1941 20.0604 52.0336L22.969 49.1245C24.296 49.4092 25.6477 49.5538 27.0007 49.5538C28.3524 49.5538 29.7046 49.41 31.0312 49.1254L33.939 52.0336C35.0999 53.1941 36.6243 53.7746 38.1491 53.7746C39.6734 53.7742 41.1986 53.1941 42.3591 52.0336L48.6172 45.7755C50.9383 43.4544 51.202 39.9409 49.2047 37.9432L47.8719 36.6104L48.5295 35.9525C48.5369 35.9455 48.5439 35.9385 48.5513 35.9311ZM19.5289 4.36306C20.0505 3.84148 20.7439 3.55433 21.4813 3.55433C22.2188 3.55433 22.9122 3.84148 23.4337 4.36306L28.3887 9.31801C29.4652 10.3949 29.4652 12.1467 28.3887 13.2232C27.8671 13.7448 27.1737 14.032 26.4367 14.032H26.4363C25.6988 14.0315 25.0059 13.7448 24.4843 13.2232C24.4835 13.2224 24.4826 13.2216 24.4822 13.2212L19.5302 8.2691C19.526 8.26498 19.5223 8.26086 19.5178 8.25715C18.4524 7.17898 18.4561 5.43546 19.5289 4.36306ZM13.3273 14.4547C12.2582 13.3773 12.2607 11.6309 13.3343 10.5573C13.8563 10.0357 14.5501 9.74854 15.2875 9.74854C16.0242 9.74854 16.7167 10.0353 17.2383 10.5564C17.2387 10.5564 17.2391 10.5569 17.2391 10.5573C17.2412 10.5589 17.2428 10.5606 17.2445 10.5622L22.1937 15.5114C22.1965 15.5147 22.2002 15.518 22.2035 15.5213L23.4333 16.7511C23.9549 17.2726 24.2425 17.966 24.2425 18.7039C24.2425 19.4413 23.9553 20.1347 23.4337 20.6559C22.9122 21.1774 22.2188 21.4646 21.4813 21.4646C20.7439 21.4646 20.0505 21.1774 19.5293 20.6559C19.5227 20.6493 19.5162 20.6431 19.5096 20.6369L18.2954 19.4224C18.2938 19.4207 18.2921 19.4191 18.2905 19.417L13.3347 14.4621L13.3343 14.4617C13.3318 14.4592 13.3294 14.4567 13.3273 14.4547ZM7.14132 16.7511C7.66249 16.2299 8.35545 15.9428 9.0929 15.9428C9.83036 15.9428 10.5237 16.2299 11.0453 16.7515L16.006 21.7122C17.0772 22.7891 17.0751 24.5368 16.0011 25.6117C15.4795 26.1328 14.7857 26.42 14.0483 26.42C13.3108 26.42 12.6174 26.1328 12.0963 25.6112C12.0897 25.6051 12.0835 25.5985 12.0769 25.5923L7.15657 20.6719C7.15121 20.6666 7.14586 20.6608 7.14091 20.6559C6.61934 20.1343 6.33218 19.4413 6.33218 18.7039C6.33177 17.9664 6.61934 17.2731 7.14132 16.7511ZM4.06008 29.9639C4.0539 29.9573 4.04772 29.9511 4.04154 29.9449C2.96708 28.8684 2.96791 27.1183 4.0436 26.0426C4.56518 25.521 5.25855 25.2339 5.996 25.2339C6.73346 25.2339 7.42724 25.521 7.94882 26.043L11.6649 29.7587C12.7415 30.8352 12.7415 32.587 11.6653 33.6635C11.1438 34.1851 10.4504 34.4722 9.71336 34.4722H9.71294C9.5774 34.4722 9.4435 34.4624 9.31167 34.4434C9.30178 34.4413 9.29189 34.4401 9.28201 34.4385C8.71346 34.3499 8.18859 34.087 7.77208 33.6755C7.76796 33.6709 7.76342 33.6668 7.7593 33.6623L4.06008 29.9639ZM22.8813 45.7771C22.8672 45.7734 22.8537 45.7718 22.8401 45.7685C22.8075 45.7607 22.7754 45.7532 22.7428 45.7475C22.7189 45.7434 22.695 45.7405 22.6707 45.7372C22.644 45.7339 22.6172 45.7306 22.59 45.7285C22.5616 45.7261 22.5331 45.7248 22.5047 45.7244C22.4816 45.7236 22.459 45.7232 22.4359 45.7236C22.4054 45.724 22.3753 45.7256 22.3453 45.7281C22.3234 45.7298 22.3016 45.7314 22.2798 45.7339C22.2501 45.7372 22.2208 45.7417 22.1916 45.7467C22.1685 45.7504 22.1459 45.7549 22.1228 45.7598C22.096 45.7656 22.0696 45.7718 22.0433 45.7792C22.0181 45.7858 21.993 45.7932 21.9679 45.801C21.9444 45.8089 21.9217 45.8171 21.8987 45.8253C21.8719 45.8356 21.8451 45.8459 21.8192 45.8575C21.7981 45.8665 21.7771 45.8764 21.7565 45.8863C21.7302 45.8991 21.7042 45.9123 21.6787 45.9267C21.6577 45.9382 21.6371 45.9506 21.6165 45.9634C21.5934 45.9778 21.5699 45.9922 21.5472 46.0079C21.5242 46.0239 21.5015 46.0408 21.4793 46.0581C21.4607 46.0721 21.4426 46.0861 21.4245 46.101C21.3981 46.1232 21.373 46.1463 21.3483 46.1702C21.3388 46.1792 21.3285 46.1871 21.319 46.1965L17.7714 49.7442C16.7122 50.8034 14.9893 50.8034 13.93 49.7442L7.67238 43.4865C7.14091 42.955 6.82822 42.2748 6.79237 41.5708C6.75983 40.9293 6.96623 40.3513 7.37451 39.9434L9.60995 37.7076C9.64414 37.708 9.67834 37.71 9.71294 37.71C9.71294 37.71 9.71294 37.71 9.71336 37.71C11.3152 37.71 12.8214 37.0859 13.9548 35.9529C15.6888 34.2185 16.1358 31.6782 15.2978 29.5268C16.4234 29.2895 17.4579 28.7333 18.2909 27.9011C19.2422 26.949 19.8066 25.7538 19.9833 24.5137C20.467 24.6377 20.9692 24.7024 21.4813 24.7024C21.4813 24.7024 21.4813 24.7024 21.4817 24.7024C23.0835 24.7024 24.5898 24.0787 25.7231 22.9457C26.8561 21.8127 27.4803 20.3061 27.4803 18.7039C27.4803 18.1926 27.416 17.6912 27.2928 17.2084C28.57 17.0271 29.7499 16.4413 30.6781 15.5122C33.0169 13.1738 33.0169 9.36828 30.6785 7.02902L29.2893 5.6398L30.5664 4.36306C31.6434 3.28654 33.3951 3.28654 34.4712 4.36264C34.9928 4.88422 35.28 5.57759 35.28 6.31505C35.28 7.0525 34.9928 7.74587 34.4712 8.26745C34.1553 8.58344 33.9971 8.9979 33.9971 9.41236C33.9971 9.8264 34.1548 10.2409 34.4712 10.5569C35.1036 11.1893 36.1283 11.1893 36.7607 10.5569C37.8368 9.48075 39.5885 9.48034 40.6655 10.5569C41.742 11.6338 41.7416 13.3856 40.6651 14.4621C40.3491 14.7781 40.1909 15.1925 40.1909 15.6066C40.1909 16.021 40.3486 16.4351 40.6651 16.7511C41.2974 17.3835 42.3221 17.3835 42.9545 16.7515C43.476 16.2299 44.1698 15.9428 44.9073 15.9423C45.6447 15.9423 46.3381 16.2295 46.8593 16.7511C47.3812 17.2731 47.6684 17.9664 47.6684 18.7039C47.6684 19.4314 47.3887 20.1162 46.8803 20.6349C46.8729 20.6423 46.8654 20.6493 46.8584 20.6567L44.5369 22.9786C43.9589 23.5567 43.9024 24.475 44.4055 25.1193L44.4887 25.226C44.9905 25.8691 45.8927 26.0381 46.5931 25.6207C47.6787 24.9739 49.0617 25.1473 49.9566 26.0418C51.0331 27.1187 51.0331 28.8705 49.9566 29.947L46.2409 33.6623C46.2339 33.6697 46.2265 33.6771 46.2194 33.6845L38.2438 41.6602C34.2422 45.6618 28.3557 47.2393 22.8813 45.7771ZM46.9157 40.2326C47.6256 40.9429 47.3512 42.4635 46.3282 43.4865L40.0701 49.7442C39.0109 50.8034 37.288 50.8034 36.2288 49.7442L34.5067 48.0221C36.745 47.0667 38.795 45.6877 40.5332 43.9496L45.5825 38.8999L46.9157 40.2326Z" fill="black"/>
</g>
<defs>
<clipPath id="clip0">
<rect width="54" height="54" fill="white"/>
</clipPath>
</defs>
</svg>
