<svg width="54" height="54" viewBox="0 0 54 54" fill="none" xmlns="http://www.w3.org/2000/svg">
<path d="M47.5664 0H6.43359V28.582H20.2277L19.4367 31.7461H15.9258V34.9102H38.0742V31.7461H34.5633L33.7723 28.582H47.5664V0ZM22.698 31.7461L23.489 28.582H30.511L31.302 31.7461H22.698ZM44.4023 25.418H9.59766V22.2539H44.4023V25.418ZM44.4023 19.0898H9.59766V3.16406H44.4023V19.0898Z" fill="black" fill-opacity="0.87"/>
<path d="M41.2383 6.32812H34.9102V9.49219H41.2383V6.32812Z" fill="black" fill-opacity="0.87"/>
<path d="M41.2383 12.7617H28.582V15.9258H41.2383V12.7617Z" fill="black" fill-opacity="0.87"/>
<path d="M49.2539 38.0742H46.0898C43.4728 38.0742 41.3438 40.2033 41.3438 42.8203V47.5664H54V42.8203C54 40.2033 51.8709 38.0742 49.2539 38.0742ZM50.8359 44.4023H44.5078V42.8203C44.5078 41.948 45.2175 41.2383 46.0898 41.2383H49.2539C50.1262 41.2383 50.8359 41.948 50.8359 42.8203V44.4023Z" fill="black" fill-opacity="0.87"/>
<path d="M0 38.1797V54H37.9688V38.1797H0ZM34.8047 50.8359H3.16406V41.3438H34.8047V50.8359Z" fill="black" fill-opacity="0.87"/>
<path d="M31.6406 44.5078H25.3125V47.6719H31.6406V44.5078Z" fill="black" fill-opacity="0.87"/>
<path d="M22.1484 44.5078H18.9844V47.6719H22.1484V44.5078Z" fill="black" fill-opacity="0.87"/>
<path d="M15.8203 44.5078H12.6562V47.6719H15.8203V44.5078Z" fill="black" fill-opacity="0.87"/>
<path d="M9.49219 44.5078H6.32812V47.6719H9.49219V44.5078Z" fill="black" fill-opacity="0.87"/>
</svg>
