<svg width="54" height="54" viewBox="0 0 54 54" fill="none" xmlns="http://www.w3.org/2000/svg">
<path d="M49.2249 0H4.77344C2.15644 0 0.0273438 2.1291 0.0273438 4.74609V36.5171C0.0273438 39.1341 2.15644 41.2632 4.77344 41.2632H20.9242V44.5078H11.9762L10.3942 54H43.6605L42.0785 44.5078H33.0742V41.2632H49.2249C51.8419 41.2632 53.971 39.1341 53.971 36.5171V4.74609C53.971 2.1291 51.8419 0 49.2249 0ZM4.77344 3.16406H49.225C50.0974 3.16406 50.8071 3.87376 50.8071 4.74609V31.771H3.19141V4.74609C3.19141 3.87376 3.90111 3.16406 4.77344 3.16406ZM39.9254 50.8359H14.1293L14.6566 47.6719H39.3981L39.9254 50.8359ZM29.9101 44.5078H24.0882V41.2632H29.9101V44.5078ZM49.2249 38.0991H4.77344C3.90111 38.0991 3.19141 37.3894 3.19141 36.5171V34.935H50.8071V36.5171C50.807 37.3895 50.0973 38.0991 49.2249 38.0991Z" fill="black"/>
<path d="M28.1074 25.207H25.8926C25.3758 25.207 24.7852 24.7641 24.7852 23.8781V22.3277C24.7852 21.5895 24.416 20.925 23.8254 20.4082C22.4965 19.3746 21.832 17.898 21.832 16.2738C21.9059 13.4684 24.1945 11.2535 26.9262 11.1797C28.3289 11.1797 29.6578 11.6965 30.6176 12.6562C31.5774 13.616 32.168 14.9449 32.168 16.3477C32.168 17.898 31.5035 19.3746 30.2484 20.3344C29.584 20.8512 29.2148 21.6633 29.2148 22.4016V24.0996C29.2148 24.6902 28.6981 25.207 28.1074 25.207ZM27 11.918C24.6375 11.918 22.6441 13.9113 22.5703 16.2738C22.5703 17.6766 23.1609 19.0055 24.2684 19.8176C25.0805 20.482 25.5234 21.368 25.5234 22.3277V23.8781C25.5234 24.0258 25.5234 24.4688 25.8926 24.4688H28.1074C28.3289 24.4688 28.4766 24.3211 28.4766 24.0996V22.4016C28.4766 21.4418 28.9934 20.4082 29.8055 19.7438C30.8391 18.9316 31.4297 17.6766 31.4297 16.3477C31.4297 15.1664 30.9867 14.059 30.1008 13.173C29.2887 12.3609 28.1813 11.918 27 11.918Z" fill="black" stroke="black" stroke-width="0.7"/>
<path d="M28.8457 22.9922H25.1543C24.9328 22.9922 24.7852 22.8445 24.7852 22.623C24.7852 22.4016 24.9328 22.2539 25.1543 22.2539H28.8457C29.0672 22.2539 29.2148 22.4016 29.2148 22.623C29.2148 22.8445 29.0672 22.9922 28.8457 22.9922Z" fill="black" stroke="black" stroke-width="0.7"/>
<path d="M27 9.70312C26.7785 9.70312 26.6309 9.55547 26.6309 9.33398V7.85742C26.6309 7.63594 26.7785 7.48828 27 7.48828C27.2215 7.48828 27.3691 7.63594 27.3691 7.85742V9.33398C27.3691 9.55547 27.2215 9.70312 27 9.70312Z" fill="black" stroke="black" stroke-width="0.7"/>
<path d="M31.9471 11.7702C31.8732 11.7702 31.7256 11.7702 31.6518 11.6964C31.5041 11.5488 31.5041 11.3273 31.6518 11.1796L32.6854 10.146C32.833 9.99836 33.0545 9.99836 33.2022 10.146C33.3498 10.2937 33.3498 10.5152 33.2022 10.6628L32.1686 11.6964C32.1686 11.6964 32.0209 11.7702 31.9471 11.7702Z" fill="black" stroke="black" stroke-width="0.7"/>
<path d="M35.4902 16.7168H34.0137C33.7922 16.7168 33.6445 16.5691 33.6445 16.3477C33.6445 16.1262 33.7922 15.9785 34.0137 15.9785H35.4902C35.7117 15.9785 35.8594 16.1262 35.8594 16.3477C35.8594 16.5691 35.7117 16.7168 35.4902 16.7168Z" fill="black" stroke="black" stroke-width="0.7"/>
<path d="M32.9807 22.6969C32.9068 22.6969 32.7592 22.6969 32.6854 22.623L31.6518 21.5895C31.5041 21.4418 31.5041 21.2203 31.6518 21.0727C31.7994 20.925 32.0209 20.925 32.1686 21.0727L33.2022 22.1062C33.3498 22.2539 33.3498 22.4754 33.2022 22.623C33.2022 22.6969 33.1283 22.6969 32.9807 22.6969Z" fill="black" stroke="black" stroke-width="0.7"/>
<path d="M21.0213 22.6969C20.9475 22.6969 20.7998 22.6969 20.726 22.623C20.5783 22.4754 20.5783 22.2539 20.726 22.1062L21.7596 21.0727C21.9072 20.925 22.1287 20.925 22.2764 21.0727C22.424 21.2203 22.424 21.4418 22.2764 21.5895L21.2428 22.623C21.1689 22.6969 21.0951 22.6969 21.0213 22.6969Z" fill="black" stroke="black" stroke-width="0.7"/>
<path d="M19.9863 16.7168H18.5098C18.2883 16.7168 18.1406 16.5691 18.1406 16.3477C18.1406 16.1262 18.2883 15.9785 18.5098 15.9785H19.9863C20.2078 15.9785 20.3555 16.1262 20.3555 16.3477C20.3555 16.5691 20.2078 16.7168 19.9863 16.7168Z" fill="black" stroke="black" stroke-width="0.7"/>
<path d="M22.0549 11.7703C21.9811 11.7703 21.8334 11.7703 21.7596 11.6965L20.726 10.5891C20.5783 10.4414 20.5783 10.2199 20.726 10.0723C20.8736 9.92463 21.0951 9.92463 21.2428 10.0723L22.2764 11.1059C22.424 11.2535 22.424 11.475 22.2764 11.6227C22.2025 11.6965 22.1287 11.7703 22.0549 11.7703Z" fill="black" stroke="black" stroke-width="0.7"/>
<path d="M29.9531 16.7168C29.7316 16.7168 29.584 16.5691 29.584 16.3477C29.584 14.9449 28.4027 13.7637 27 13.7637C26.7785 13.7637 26.6309 13.616 26.6309 13.3945C26.6309 13.173 26.7785 13.0254 27 13.0254C28.8457 13.0254 30.3223 14.502 30.3223 16.3477C30.3223 16.5691 30.1746 16.7168 29.9531 16.7168Z" fill="black" stroke="black" stroke-width="0.7"/>
</svg>
