<svg width="54" height="54" viewBox="0 0 54 54" fill="none" xmlns="http://www.w3.org/2000/svg">
<g clip-path="url(#clip0)">
<path d="M50.8359 6.43148L47.8695 6.43159H17.5068C17.2835 6.13501 17.0388 5.85151 16.7716 5.58436C15.2774 4.09018 13.291 3.26742 11.1781 3.26742C10.8003 3.26742 10.4267 3.29484 10.0592 3.34663L8.10018 1.38775C6.24952 -0.462695 3.2385 -0.4628 1.38784 1.38775C-0.462612 3.23831 -0.462612 6.24944 1.38784 8.1001L3.3466 10.0589C3.29482 10.4264 3.2674 10.8 3.2674 11.1778C3.2674 13.2907 4.09016 15.2774 5.58433 16.7713C5.85149 17.0385 6.13499 17.2833 6.43156 17.5066V49.2536V50.8357V53.9999H9.59573V50.6766C13.202 49.9417 15.9241 46.7454 15.9241 42.9253V31.1939C19.1729 30.4277 22.1194 28.8983 24.565 26.8025L26.6711 28.9086L28.9085 26.6711L26.8024 24.565C28.8983 22.1194 30.4276 19.1729 31.1938 15.9241H42.9252C46.7454 15.9241 49.9415 13.202 50.6766 9.59575H53.9999V6.43148H50.8359ZM5.58454 5.58446C5.20443 5.96457 4.8682 6.37695 4.57753 6.81496L3.62546 5.8629C3.00858 5.24601 3.00858 4.24227 3.62546 3.62548C4.24235 3.0086 5.2462 3.0086 5.86298 3.62548L6.81494 4.57745C6.37704 4.86801 5.96476 5.20414 5.58454 5.58446ZM12.7601 42.9253C12.7601 44.9879 11.4376 46.7474 9.59594 47.4004V18.9305C10.1112 19.0345 10.6404 19.0884 11.1781 19.0884C11.7158 19.0884 12.2449 19.0345 12.7602 18.9305V42.9253H12.7601ZM14.5341 14.534C13.6377 15.4305 12.4458 15.9242 11.1781 15.9242C9.91034 15.9242 8.71844 15.4305 7.82196 14.5339C6.92547 13.6375 6.43177 12.4456 6.43177 11.1779C6.43177 9.91016 6.92547 8.71825 7.82206 7.82177C8.71844 6.92529 9.91034 6.43159 11.1781 6.43159C12.4458 6.43159 13.6377 6.92518 14.5341 7.82177C15.4306 8.71825 15.9244 9.91016 15.9244 11.1779C15.9244 12.4456 15.4306 13.6375 14.5341 14.534ZM24.5573 22.3197L21.7893 19.5517L19.5519 21.7891L22.3199 24.5571C20.4747 26.094 18.3047 27.2549 15.9243 27.926V17.5065C16.2209 17.2832 16.5044 17.0385 16.7715 16.7713C17.0387 16.5042 17.2835 16.1996 17.5068 15.903H27.9263C27.2552 18.2834 26.0941 20.4746 24.5573 22.3197ZM42.9254 12.7599H18.9306C19.0346 12.2447 19.0884 11.7155 19.0884 11.1778C19.0884 10.6401 19.0346 10.0899 18.9306 9.57455H47.4006C46.7476 11.4164 44.9881 12.7599 42.9254 12.7599Z" fill="black" fill-opacity="0.87"/>
<path d="M12.7599 9.59595H9.5957V12.7601H12.7599V9.59595Z" fill="black" fill-opacity="0.87"/>
<path d="M50.8355 15.9243V17.5064C50.8355 35.8844 35.8839 50.8359 17.506 50.8359H15.9238V54H17.506C22.4172 54 27.1891 53.0319 31.6886 51.1226C36.031 49.2799 39.9339 46.6444 43.2891 43.2893C46.6441 39.9343 49.2796 36.0313 51.1222 31.6888C53.0316 27.1893 53.9996 22.4176 53.9996 17.5063V15.9242H50.8355V15.9243Z" fill="black" fill-opacity="0.87"/>
</g>
<defs>
<clipPath id="clip0">
<rect width="54" height="54" fill="white"/>
</clipPath>
</defs>
</svg>
