<svg width="54" height="54" viewBox="0 0 54 54" fill="none" xmlns="http://www.w3.org/2000/svg">
<g clip-path="url(#clip0)">
<path d="M51.727 32.1247L50.5916 31.4309L51.727 30.7325C54.7512 28.8841 54.7579 25.7361 51.727 23.8837L50.5916 23.1899L51.727 22.4914C54.7592 20.6384 54.7486 16.2409 51.7308 14.3967L29.4687 0.704134C27.9425 -0.228526 26.0464 -0.228526 24.5203 0.704134C24.5189 0.704978 24.5177 0.705821 24.5162 0.706665L2.27294 14.3944C-0.758333 16.247 -0.749369 20.6445 2.26883 22.4889L3.40821 23.19L2.27294 23.8837C-0.74747 25.7297 -0.760337 28.8785 2.26883 30.7297L3.40821 31.4309L2.27294 32.1246C-0.759177 33.9777 -0.754747 37.7554 2.26883 39.6032L24.5203 53.296C26.0301 54.2186 27.9261 54.2387 29.4725 53.2937L51.727 39.6059C54.7578 37.7537 54.7575 33.9769 51.727 32.1247ZM3.92659 17.0909L26.174 3.40076L26.1733 3.40118C26.6815 3.09247 27.3118 3.09321 27.8153 3.40097L50.0776 17.0936C51.0846 17.7089 51.0906 19.1735 50.0738 19.7949C48.4398 20.7999 28.538 33.0406 27.8194 33.4828C27.3105 33.7937 26.6786 33.7936 26.1742 33.4853C25.1804 32.8738 4.81168 20.3397 3.92269 19.7925C2.91546 19.1771 2.90924 17.7127 3.92659 17.0909ZM3.16553 27.308C3.16711 27.2549 3.30654 26.9591 3.92248 26.5827L6.43063 25.0498L24.5204 36.1816C26.0335 37.1061 27.9296 37.1221 29.4725 36.1792L47.5684 25.0492L50.0776 26.5826C50.6935 26.959 50.833 27.2548 50.8346 27.3078C50.833 27.3611 50.6934 27.657 50.0737 28.0357C48.4395 29.0408 28.538 41.2814 27.8193 41.7236C27.3104 42.0345 26.6785 42.0344 26.1741 41.7261C25.4549 41.2836 5.57296 29.049 3.92258 28.0333C3.30654 27.6568 3.16711 27.361 3.16553 27.308ZM50.0738 36.9091L27.8192 50.5971C27.3105 50.908 26.6785 50.9079 26.174 50.5996L3.92237 36.9068C2.91736 36.2928 2.9162 35.4385 3.92237 34.8237L6.43063 33.2909L24.5204 44.4226C26.0356 45.3484 27.9316 45.3619 29.4725 44.4202L47.5684 33.2902L50.0776 34.8237C50.5588 35.1176 50.8346 35.4972 50.8346 35.8652C50.8346 36.2332 50.5586 36.6129 50.0738 36.9091Z" fill="black"/>
</g>
<defs>
<clipPath id="clip0">
<rect width="54" height="54" fill="white"/>
</clipPath>
</defs>
</svg>
