<svg width="54" height="54" viewBox="0 0 54 54" fill="none" xmlns="http://www.w3.org/2000/svg">
<path d="M44.714 6.01615C40.8344 2.13659 35.669 0 30.169 0C25.2012 0 20.5064 1.74371 16.7855 4.93984L12.2674 0.421875L11.1486 1.54079C7.90515 4.78417 5.53368 8.81793 4.29063 13.2057C1.63303 22.587 4.26078 32.6935 11.1487 39.5815C14.7322 43.165 19.1503 45.6114 23.9648 46.7434L20.0047 50.8355H15.9285V54H44.4096V50.8354H40.3334L36.3766 46.7468C41.1915 45.6179 45.6127 43.1755 49.2014 39.5966L50.3234 38.4777L45.7903 33.9446C52.7164 25.872 52.3576 13.6599 44.714 6.01615ZM46.4421 26.7334C46.307 26.1095 46.1305 25.4671 45.9106 24.8076C45.2647 22.8698 44.2796 20.8728 43.0145 18.904L46.724 15.1946C47.9337 18.9471 47.8395 23.0324 46.4421 26.7334ZM19.1832 24.8339C20.137 26.0548 21.1928 27.2487 22.3372 28.3929C23.4815 29.5373 24.6753 30.593 25.8962 31.5469L21.6815 35.7616C20.2976 34.9878 19.0125 34.0189 17.8617 32.8683C16.6985 31.7051 15.7349 30.4168 14.9705 29.0465L19.1832 24.8339ZM13.614 25.9277C12.4042 22.1749 12.4983 18.0898 13.8959 14.3888C14.031 15.0126 14.2074 15.655 14.4273 16.3146C15.0732 18.2524 16.0583 20.2495 17.3234 22.2183L13.614 25.9277ZM32.4067 25.0365L28.1508 29.2924C26.9276 28.3583 25.7264 27.3069 24.5748 26.1552C23.4232 25.0035 22.3719 23.8024 21.4377 22.5793L25.6936 18.3234L32.4067 25.0365ZM27.9313 16.0857L32.1872 11.8298C33.4104 12.7638 34.6116 13.8152 35.7631 14.9669C36.9147 16.1185 37.9661 17.3196 38.9002 18.5428L34.6444 22.7988L27.9313 16.0857ZM28.5119 33.4066C30.4808 34.6717 32.4779 35.6567 34.4157 36.3027C35.0776 36.5233 35.7226 36.7008 36.3486 36.8361C34.4016 37.5723 32.3158 37.9577 30.1692 37.9577C28.3173 37.9577 26.5107 37.6707 24.7993 37.1194L28.5119 33.4066ZM35.4162 33.3005C33.9106 32.7986 32.356 32.0571 30.8058 31.1128L34.6444 27.2741L41.079 33.7087C39.6582 34.189 37.6889 34.0581 35.4162 33.3005ZM36.8821 25.0365L40.7207 21.1978C41.6651 22.7481 42.4065 24.3026 42.9084 25.8083C43.666 28.0808 43.7969 30.0503 43.3166 31.4709L36.8821 25.0365ZM42.4763 8.25388C43.6394 9.41699 44.603 10.7053 45.3674 12.0756L41.1548 16.2883C40.201 15.0674 39.1452 13.8735 38.0009 12.7292C36.8565 11.5849 35.6627 10.5292 34.4418 9.5753L38.6566 5.36055C40.0405 6.13438 41.3257 7.10311 42.4763 8.25388ZM30.169 3.16459C32.0209 3.16459 33.8275 3.45157 35.5388 4.00286L31.8261 7.71557C29.8572 6.45047 27.8602 5.4655 25.9225 4.8195C25.2602 4.59875 24.6152 4.42157 23.9889 4.28625C25.9361 3.54987 28.0223 3.16459 30.169 3.16459ZM21.1621 7.13127C22.2659 7.13127 23.5377 7.36024 24.9217 7.82167C26.4274 8.32359 27.982 9.06504 29.5321 10.0094L25.6936 13.848L19.259 7.4134C19.8144 7.22556 20.4536 7.13127 21.1621 7.13127ZM17.0214 9.65123L23.456 16.0858L19.6172 19.9244C18.673 18.3742 17.9314 16.8196 17.4296 15.314C16.672 13.0412 16.541 11.0718 17.0214 9.65123ZM24.4084 50.8354L27.7767 47.3547C28.5681 47.4242 29.3662 47.4614 30.1702 47.4616C30.1729 47.4616 30.1749 47.4616 30.1775 47.4616C30.9784 47.4616 31.7737 47.4249 32.5625 47.3561L35.9296 50.8354H24.4084ZM45.808 38.4377C41.345 42.3362 35.7621 44.2843 30.1781 44.2839C24.0953 44.2834 18.0124 41.9699 13.3864 37.3438C7.30862 31.266 4.98999 22.3474 7.33541 14.0684C8.28832 10.7044 9.99449 7.5755 12.3048 4.93457L14.5478 7.17757C7.62155 15.25 7.98024 27.4623 15.6241 35.106C19.5037 38.9856 24.6692 41.1222 30.1691 41.1222C35.137 41.1222 39.8317 39.3784 43.5525 36.1822L45.808 38.4377Z" fill="black" fill-opacity="0.87"/>
</svg>
