<svg width="54" height="54" viewBox="0 0 54 54" fill="none" xmlns="http://www.w3.org/2000/svg">
<g clip-path="url(#clip0)">
<path d="M19.638 34.8042H17.2253C19.4595 33.366 20.9436 30.8588 20.9436 28.0099C20.9436 23.5565 17.3204 19.9333 12.867 19.9333C8.41353 19.9333 4.79042 23.5566 4.79042 28.0099C4.79042 30.8588 6.27445 33.366 8.50866 34.8042H6.096C2.73466 34.8042 0 37.5482 0 40.9209V52.4181C0 53.2918 0.708317 54.0001 1.58201 54.0001C2.4557 54.0001 3.16401 53.2918 3.16401 52.4181V40.9209C3.16401 39.2928 4.47929 37.9682 6.096 37.9682H10.6766L8.03058 44.7318C7.82819 45.2493 7.91193 45.8348 8.25143 46.2747L11.6146 50.6327C11.9141 51.0209 12.3767 51.2482 12.867 51.2482C13.3573 51.2482 13.8199 51.0209 14.1194 50.6327L17.4825 46.2747C17.8219 45.8349 17.9058 45.2493 17.7034 44.7318L15.0573 37.9682H19.638C21.2547 37.9682 22.57 39.2928 22.57 40.9209V52.4175C22.57 53.2911 23.2783 53.9995 24.152 53.9995C25.0257 53.9995 25.734 53.2911 25.734 52.4175V40.9209C25.734 37.5482 22.9993 34.8042 19.638 34.8042ZM12.867 23.0974C15.5758 23.0974 17.7795 25.3012 17.7795 28.0099C17.7795 30.7186 15.5758 32.9225 12.867 32.9225C10.1582 32.9225 7.95443 30.7187 7.95443 28.0099C7.95443 25.3011 10.1583 23.0974 12.867 23.0974ZM12.867 47.0768L11.3033 45.0507L12.867 41.054L14.4306 45.0507L12.867 47.0768Z" fill="black"/>
<path d="M53.6538 17.4369L40.2067 0.59494C39.9065 0.21895 39.4516 0 38.9704 0C38.4893 0 38.0344 0.21895 37.7342 0.59494L24.2871 17.4369C23.9078 17.9118 23.8343 18.5622 24.0979 19.1099C24.3616 19.6576 24.9156 20.0059 25.5235 20.0059H30.164V52.4171C30.164 53.2908 30.8724 53.9992 31.7461 53.9992H46.195C47.0687 53.9992 47.777 53.2908 47.777 52.4171V20.0059H52.4176C53.0255 20.0059 53.5795 19.6577 53.8432 19.1099C54.1066 18.5622 54.033 17.9118 53.6538 17.4369ZM46.1949 16.8419C45.3212 16.8419 44.6129 17.5503 44.6129 18.4239V50.8351H33.328V18.4239C33.328 17.5503 32.6196 16.8419 31.7459 16.8419H28.8109L38.9705 4.11754L49.1301 16.8419H46.1949Z" fill="black"/>
</g>
<defs>
<clipPath id="clip0">
<rect width="54" height="54" fill="white"/>
</clipPath>
</defs>
</svg>
