<svg width="146" height="40" viewBox="0 0 146 40" fill="none" xmlns="http://www.w3.org/2000/svg">
<path d="M34 10.0184L17.0353 0L0 10.0627V30.1143L17.12 40L33.9153 29.9963L34 29.952V10.0184ZM2.51225 28.5503V12.2759L7.24035 14.6809V31.2947L2.51225 28.5503ZM15.7792 36.2228L9.73848 32.7407V15.9498L15.7792 18.9598V36.2228ZM16.9788 16.6728L4.54462 10.4168L17.1059 3.06898L29.413 10.3726L16.9788 16.6728ZM31.5019 28.4028L18.2773 36.2818V29.5389L31.5019 22.2944V28.4028ZM31.5019 19.3139L18.2773 26.5585V18.9598L31.5019 12.2316V19.3139Z" fill="white"/>
<path d="M54.56 13V15.64H50.78V27H48.02V15.64H44.26V13H54.56ZM64.7108 19.74C65.9374 20.4467 66.5508 21.5133 66.5508 22.94C66.5508 24.1267 66.1308 25.1 65.2908 25.86C64.4508 26.62 63.4174 27 62.1908 27H56.2508V13H61.7708C62.9708 13 63.9774 13.3733 64.7908 14.12C65.6174 14.8533 66.0308 15.7933 66.0308 16.94C66.0308 18.1 65.5908 19.0333 64.7108 19.74ZM61.7708 15.58H59.0108V18.66H61.7708C62.1974 18.66 62.5508 18.5133 62.8308 18.22C63.1241 17.9267 63.2708 17.56 63.2708 17.12C63.2708 16.68 63.1308 16.3133 62.8508 16.02C62.5708 15.7267 62.2108 15.58 61.7708 15.58ZM62.1908 24.42C62.6574 24.42 63.0441 24.2667 63.3508 23.96C63.6574 23.64 63.8108 23.24 63.8108 22.76C63.8108 22.2933 63.6574 21.9067 63.3508 21.6C63.0441 21.28 62.6574 21.12 62.1908 21.12H59.0108V24.42H62.1908ZM75.1502 27.28C73.0435 27.28 71.3035 26.58 69.9302 25.18C68.5568 23.78 67.8702 22.0533 67.8702 20C67.8702 17.9333 68.5568 16.2067 69.9302 14.82C71.3035 13.42 73.0435 12.72 75.1502 12.72C76.4168 12.72 77.5835 13.02 78.6502 13.62C79.7302 14.2067 80.5702 15.0067 81.1702 16.02L78.7902 17.4C78.4435 16.7733 77.9502 16.2867 77.3102 15.94C76.6702 15.58 75.9502 15.4 75.1502 15.4C73.7902 15.4 72.6902 15.8267 71.8502 16.68C71.0235 17.5333 70.6102 18.64 70.6102 20C70.6102 21.3467 71.0235 22.4467 71.8502 23.3C72.6902 24.1533 73.7902 24.58 75.1502 24.58C75.9502 24.58 76.6702 24.4067 77.3102 24.06C77.9635 23.7 78.4568 23.2133 78.7902 22.6L81.1702 23.98C80.5702 24.9933 79.7368 25.8 78.6702 26.4C77.6035 26.9867 76.4302 27.28 75.1502 27.28ZM89.5189 27.28C87.4122 27.28 85.6722 26.58 84.2989 25.18C82.9256 23.78 82.2389 22.0533 82.2389 20C82.2389 17.9333 82.9256 16.2067 84.2989 14.82C85.6722 13.42 87.4122 12.72 89.5189 12.72C90.7856 12.72 91.9522 13.02 93.0189 13.62C94.0989 14.2067 94.9389 15.0067 95.5389 16.02L93.1589 17.4C92.8122 16.7733 92.3189 16.2867 91.6789 15.94C91.0389 15.58 90.3189 15.4 89.5189 15.4C88.1589 15.4 87.0589 15.8267 86.2189 16.68C85.3922 17.5333 84.9789 18.64 84.9789 20C84.9789 21.3467 85.3922 22.4467 86.2189 23.3C87.0589 24.1533 88.1589 24.58 89.5189 24.58C90.3189 24.58 91.0389 24.4067 91.6789 24.06C92.3322 23.7 92.8256 23.2133 93.1589 22.6L95.5389 23.98C94.9389 24.9933 94.1056 25.8 93.0389 26.4C91.9722 26.9867 90.7989 27.28 89.5189 27.28ZM105.451 24.36H110.791V27H102.691V13H105.451V24.36ZM119.793 17H122.373V27H119.793V25.82C119.02 26.7933 117.933 27.28 116.533 27.28C115.2 27.28 114.053 26.7733 113.093 25.76C112.147 24.7333 111.673 23.48 111.673 22C111.673 20.52 112.147 19.2733 113.093 18.26C114.053 17.2333 115.2 16.72 116.533 16.72C117.933 16.72 119.02 17.2067 119.793 18.18V17ZM115.033 24.04C115.553 24.56 116.213 24.82 117.013 24.82C117.813 24.82 118.473 24.56 118.993 24.04C119.527 23.5067 119.793 22.8267 119.793 22C119.793 21.1733 119.527 20.5 118.993 19.98C118.473 19.4467 117.813 19.18 117.013 19.18C116.213 19.18 115.553 19.4467 115.033 19.98C114.513 20.5 114.253 21.1733 114.253 22C114.253 22.8267 114.513 23.5067 115.033 24.04ZM130.683 16.72C132.029 16.72 133.176 17.2333 134.123 18.26C135.083 19.2733 135.563 20.52 135.563 22C135.563 23.48 135.083 24.7333 134.123 25.76C133.176 26.7733 132.029 27.28 130.683 27.28C129.283 27.28 128.203 26.7933 127.443 25.82V27H124.863V13H127.443V18.18C128.203 17.2067 129.283 16.72 130.683 16.72ZM128.223 24.04C128.743 24.56 129.403 24.82 130.203 24.82C131.003 24.82 131.663 24.56 132.183 24.04C132.716 23.5067 132.983 22.8267 132.983 22C132.983 21.1733 132.716 20.5 132.183 19.98C131.663 19.4467 131.003 19.18 130.203 19.18C129.403 19.18 128.743 19.4467 128.223 19.98C127.703 20.5 127.443 21.1733 127.443 22C127.443 22.8267 127.703 23.5067 128.223 24.04ZM139.697 19.84C139.697 20.1067 139.871 20.3267 140.217 20.5C140.577 20.66 141.011 20.8067 141.517 20.94C142.024 21.06 142.531 21.22 143.037 21.42C143.544 21.6067 143.971 21.9267 144.317 22.38C144.677 22.8333 144.857 23.4 144.857 24.08C144.857 25.1067 144.471 25.9 143.697 26.46C142.937 27.0067 141.984 27.28 140.837 27.28C138.784 27.28 137.384 26.4867 136.637 24.9L138.877 23.64C139.171 24.5067 139.824 24.94 140.837 24.94C141.757 24.94 142.217 24.6533 142.217 24.08C142.217 23.8133 142.037 23.6 141.677 23.44C141.331 23.2667 140.904 23.1133 140.397 22.98C139.891 22.8467 139.384 22.68 138.877 22.48C138.371 22.28 137.937 21.9667 137.577 21.54C137.231 21.1 137.057 20.5533 137.057 19.9C137.057 18.9133 137.417 18.14 138.137 17.58C138.871 17.0067 139.777 16.72 140.857 16.72C141.671 16.72 142.411 16.9067 143.077 17.28C143.744 17.64 144.271 18.16 144.657 18.84L142.457 20.04C142.137 19.36 141.604 19.02 140.857 19.02C140.524 19.02 140.244 19.0933 140.017 19.24C139.804 19.3867 139.697 19.5867 139.697 19.84Z" fill="white"/>
</svg>
