<svg width="565" height="399" viewBox="0 0 565 399" fill="none" xmlns="http://www.w3.org/2000/svg">
<path d="M565 159.544L283.086 0L0 160.249V479.571L284.494 637L563.593 477.691L565 476.986V159.544ZM41.7476 454.664V195.494L120.318 233.794V498.368L41.7476 454.664ZM262.213 576.848L161.831 521.395V254.001L262.213 301.935V576.848ZM282.148 265.515L75.521 165.888L284.259 48.8735L488.775 165.183L282.148 265.515ZM523.487 452.315L303.726 577.788V470.407L523.487 355.038V452.315ZM523.487 307.574L303.726 422.944V301.935L523.487 194.789V307.574Z" fill="url(#paint0_linear)"/>
<defs>
<linearGradient id="paint0_linear" x1="-25.6818" y1="318.5" x2="590.682" y2="318.5" gradientUnits="userSpaceOnUse">
<stop stop-color="#30AD8E"/>
<stop offset="1" stop-color="#6ADFBE"/>
</linearGradient>
</defs>
</svg>
