<svg width="54" height="54" viewBox="0 0 54 54" fill="none" xmlns="http://www.w3.org/2000/svg">
<g clip-path="url(#clip0)">
<path d="M53.8976 36.8876C53.8976 34.8303 52.5783 33.0763 50.7416 32.4249V16.0976L54.0001 14.7952L26.965 3.98938L0 14.7952L12.7636 19.91V27.4194C12.7636 29.7344 14.3865 31.8207 17.3334 33.2942C19.9327 34.5939 23.3535 35.3096 26.9658 35.3096C30.5781 35.3096 33.9989 34.5939 36.5981 33.2942C39.545 31.8207 41.168 29.7345 41.168 27.4194V19.9241L47.5853 17.3591V32.425C45.7486 33.0763 44.4293 34.8304 44.4293 36.8877C44.4293 38.7696 45.5332 40.3984 47.1276 41.1608L44.5103 49.0127L47.5044 50.0108L49.1634 45.0338L50.8224 50.0108L53.8166 49.0127L51.1993 41.1608C52.7934 40.3982 53.8976 38.7695 53.8976 36.8876ZM38.012 27.4193C38.012 29.654 33.2881 32.1534 26.9659 32.1534C20.6437 32.1534 15.9197 29.654 15.9197 27.4193V21.1746L26.9651 25.6009L38.0121 21.1854V27.4193H38.012ZM26.9666 22.2016L8.48442 14.7952L26.9666 7.38874L45.4965 14.7952L26.9666 22.2016ZM49.1634 38.4656C48.2933 38.4656 47.5854 37.7577 47.5854 36.8876C47.5854 36.0174 48.2933 35.3095 49.1634 35.3095C50.0335 35.3095 50.7414 36.0174 50.7414 36.8876C50.7414 37.7577 50.0335 38.4656 49.1634 38.4656Z" fill="black" fill-opacity="0.87"/>
</g>
<defs>
<clipPath id="clip0">
<rect width="54" height="54" fill="white"/>
</clipPath>
</defs>
</svg>
