<svg width="19" height="20" viewBox="0 0 19 20" fill="none" xmlns="http://www.w3.org/2000/svg">
<path fill-rule="evenodd" clip-rule="evenodd" d="M14.3233 13.6967C15.5703 12.089 16.158 10.0667 15.9668 8.04112C15.7757 6.01554 14.82 4.13888 13.2943 2.79291C11.7685 1.44694 9.78735 0.732774 7.75375 0.795702C5.72015 0.85863 3.7869 1.69392 2.34731 3.13165C0.906468 4.57038 0.068442 6.50437 0.00401015 8.53952C-0.0604217 10.5747 0.65359 12.5578 2.00054 14.0848C3.34749 15.6118 5.22601 16.5677 7.25329 16.7577C9.28056 16.9478 11.304 16.3577 12.9113 15.1077L12.9543 15.1527L17.1963 19.3957C17.2892 19.4886 17.3995 19.5623 17.5209 19.6125C17.6423 19.6628 17.7724 19.6887 17.9038 19.6887C18.0352 19.6887 18.1653 19.6628 18.2867 19.6125C18.4081 19.5623 18.5184 19.4886 18.6113 19.3957C18.7042 19.3027 18.7779 19.1924 18.8282 19.0711C18.8785 18.9497 18.9044 18.8195 18.9044 18.6882C18.9044 18.5568 18.8785 18.4267 18.8282 18.3053C18.7779 18.1839 18.7042 18.0736 18.6113 17.9807L14.3683 13.7387C14.3537 13.7242 14.3387 13.7102 14.3233 13.6967ZM12.2473 4.54665C12.8119 5.10213 13.2609 5.7639 13.5685 6.49379C13.8761 7.22368 14.0361 8.00724 14.0393 8.79927C14.0425 9.59131 13.8889 10.3761 13.5873 11.1085C13.2857 11.8409 12.8421 12.5063 12.282 13.0663C11.7219 13.6264 11.0565 14.07 10.3242 14.3716C9.59181 14.6733 8.80697 14.8269 8.01493 14.8237C7.2229 14.8204 6.43933 14.6604 5.70945 14.3529C4.97956 14.0453 4.31779 13.5963 3.76231 13.0317C2.65223 11.9033 2.03297 10.3821 2.03941 8.79927C2.04586 7.21645 2.67749 5.7003 3.79672 4.58106C4.91596 3.46183 6.43211 2.8302 8.01493 2.82375C9.59775 2.81731 11.119 3.43657 12.2473 4.54665Z" fill="black" fill-opacity="0.87"/>
</svg>
