<svg width="54" height="54" viewBox="0 0 54 54" fill="none" xmlns="http://www.w3.org/2000/svg">
<path d="M46.0898 28.2817H40.804C40.0846 28.2817 39.388 28.38 38.7252 28.5608C37.4176 25.9903 34.7479 24.2241 31.6717 24.2241H22.3283C19.2521 24.2241 16.5824 25.9903 15.2748 28.5608C14.612 28.38 13.9154 28.2817 13.196 28.2817H7.91016C3.5485 28.2817 0 31.8302 0 36.1919V44.6418C0 47.2588 2.1291 49.3879 4.74609 49.3879H49.2539C51.8709 49.3879 54 47.2588 54 44.6418V36.1919C54 31.8302 50.4515 28.2817 46.0898 28.2817ZM14.4181 32.1345V46.224H4.74609C3.87376 46.224 3.16406 45.5143 3.16406 44.6419V36.192C3.16406 33.575 5.29316 31.4459 7.91016 31.4459H13.196C13.6255 31.4459 14.0414 31.5042 14.4373 31.6117C14.4259 31.7848 14.4181 31.9588 14.4181 32.1345ZM36.4178 46.224H17.5822V32.1344C17.5822 29.5174 19.7113 27.3883 22.3283 27.3883H31.6717C34.2887 27.3883 36.4178 29.5174 36.4178 32.1344V46.224ZM50.8359 44.6419C50.8359 45.5143 50.1262 46.224 49.2539 46.224H39.5819V32.1344C39.5819 31.9586 39.5741 31.7845 39.5627 31.6116C39.9586 31.5042 40.3745 31.4458 40.804 31.4458H46.0898C48.7068 31.4458 50.8359 33.5749 50.8359 36.1919V44.6419Z" fill="black"/>
<path d="M10.5525 13.3423C6.67664 13.3423 3.52344 16.4955 3.52344 20.3714C3.52333 24.2472 6.67664 27.4004 10.5525 27.4004C14.4283 27.4004 17.5816 24.2472 17.5816 20.3714C17.5816 16.4955 14.4284 13.3423 10.5525 13.3423ZM10.5524 24.2364C8.4212 24.2364 6.68739 22.5026 6.68739 20.3714C6.68739 18.2401 8.4212 16.5063 10.5524 16.5063C12.6836 16.5063 14.4174 18.2401 14.4174 20.3714C14.4174 22.5026 12.6836 24.2364 10.5524 24.2364Z" fill="black"/>
<path d="M27.0001 4.61206C21.822 4.61206 17.6094 8.82469 17.6094 14.0028C17.6094 19.1809 21.822 23.3935 27.0001 23.3935C32.1782 23.3935 36.3908 19.1809 36.3908 14.0028C36.3908 8.8248 32.1782 4.61206 27.0001 4.61206ZM27.0001 20.2295C23.5667 20.2295 20.7734 17.4362 20.7734 14.0028C20.7734 10.5695 23.5667 7.77612 27.0001 7.77612C30.4335 7.77612 33.2268 10.5694 33.2268 14.0028C33.2268 17.4362 30.4335 20.2295 27.0001 20.2295Z" fill="black"/>
<path d="M43.4451 13.3423C39.5693 13.3423 36.416 16.4955 36.416 20.3714C36.4161 24.2472 39.5693 27.4004 43.4451 27.4004C47.321 27.4004 50.4742 24.2472 50.4742 20.3714C50.4742 16.4955 47.321 13.3423 43.4451 13.3423ZM43.4451 24.2364C41.314 24.2364 39.5801 22.5026 39.5801 20.3714C39.5802 18.2401 41.314 16.5063 43.4451 16.5063C45.5763 16.5063 47.3101 18.2401 47.3101 20.3714C47.3101 22.5026 45.5763 24.2364 43.4451 24.2364Z" fill="black"/>
</svg>
